# xmcd
#
# Track frame offsets:
#	150
#	23961
#	48871
#	82112
#	107391
#	134112
#	148176
#	175287
#	201938
#	214748
#	238306
#
# Disc length: 3623 seconds
#
# Revision: 0
# Processed by: cddbd v1.5.2PL0 Copyright (c) Steve Scherf et al.
# Submitted via: EasyCDDAExtractor 16.0.9.1
#
DISCID=a70e250b
DTITLE=Various Artist - MHCD442: Tuyển Tập Ca Khúc Văn Cao - Cung Đàn Xưa
DYEAR=2008
DGENRE=Country
TTITLE0=Ánh Tuyết - Cung Đàn Xưa (Văn Cao)
TTITLE1=Thu Hà - Suối Mơ (Văn Cao)
TTITLE2=Ánh Tuyết - Buồn Tàn Thu (Văn Cao)
TTITLE3=Hồng Nhung - Thu Cô Liêu (Văn Cao)
TTITLE4=Ánh Tuyết - Thiên Thai (Văn Cao)
TTITLE5=Hồng Nhung - Ngày Mùa (Văn Cao)
TTITLE6=Ánh Tuyết - Trương Chi (Văn Cao)
TTITLE7=Cao Minh - Bến Xuân (Văn Cao)
TTITLE8=Tam Ca Áo Trắng - Làng Tôi (Văn Cao)
TTITLE9=Thanh Thúy - Mùa Xuân Đầu Tiên (Văn Cao)
TTITLE10=Ánh Tuyết - Sông Lô (Văn Cao)
EXTD=
EXTT0=
EXTT1=
EXTT2=
EXTT3=
EXTT4=
EXTT5=
EXTT6=
EXTT7=
EXTT8=
EXTT9=
EXTT10=
PLAYORDER=
